<?xml version="1.0" encoding="utf-8"?>
<!-- Generated by IcoMoon.io -->
<!DOCTYPE svg PUBLIC "-//W3C//DTD SVG 1.1//EN" "http://www.w3.org/Graphics/SVG/1.1/DTD/svg11.dtd">
<svg version="1.1" xmlns="http://www.w3.org/2000/svg" xmlns:xlink="http://www.w3.org/1999/xlink" width="32" height="32" viewBox="0 0 32 32">
<g id="icomoon-ignore">
	<line stroke-width="1" x1="" y1="" x2="" y2="" stroke="#449FDB" opacity=""></line>
</g>
	<path d="M0 24.571v-17.143q0-2.125 1.509-3.634t3.634-1.509h17.143q2.125 0 3.634 1.509t1.509 3.634v17.143q0 2.125-1.509 3.634t-3.634 1.509h-3.429v-10.857h3.625l0.536-4h-4.161v-2.554q0-0.964 0.5-1.482t1.714-0.518l2.357-0.018v-3.696q-1.714-0.161-3.214-0.161-2.429 0-3.893 1.438t-1.464 4.027v2.964h-4v4h4v10.857h-9.714q-2.125 0-3.634-1.509t-1.509-3.634z" fill="#000000"></path>
</svg>
