<?xml version="1.0" encoding="UTF-8" standalone="no"?>
<svg width="46px" height="58px" viewBox="0 0 46 58" version="1.1" xmlns="http://www.w3.org/2000/svg" xmlns:xlink="http://www.w3.org/1999/xlink" xmlns:sketch="http://www.bohemiancoding.com/sketch/ns">
    <!-- Generator: Sketch 3.0.4 (8054) - http://www.bohemiancoding.com/sketch -->
    <title>Slice 2</title>
    <desc>Created with Sketch.</desc>
    <defs></defs>
    <g id="Page-1" stroke="none" stroke-width="1" fill="none" fill-rule="evenodd" sketch:type="MSPage">
        <g id="stackoverflow" sketch:type="MSLayerGroup" fill="#000000">
            <g id="layer1" sketch:type="MSShapeGroup">
                <path d="M0.3049611,33.847632 L4.706269,33.890792 L4.552827,53.489185 L33.844086,53.489185 L33.844086,33.961679 L38.481868,33.961679 L38.481868,58.24901 L0.2811885,58.24901 L0.3049655,33.847639 L0.3049611,33.847632 Z M7,45 L7,49.881876 L29.944817,49.881876 L29.944817,45 L7,45 Z M8.25233982,36.8416461 L7.77162966,41.8224253 L30.7318071,44.0383819 L31.2125173,39.0576026 L8.25233982,36.8416461 Z M9.7750795,26.1975408 L8.41588434,31.0133308 L30.6155014,37.278889 L31.9746965,32.463099 L9.7750795,26.1975408 Z M15.9842831,15.5953111 L13.3971941,19.8785593 L33.1419233,31.8044085 L35.7290123,27.5211603 L15.9842831,15.5953111 Z M26.2347202,4.96959807 L22.1671159,7.88401732 L35.6018777,26.634681 L39.6694821,23.7202618 L26.2347202,4.96959807 Z M42.1291763,-0.39091565 L37.1936803,0.433780333 L40.9953276,23.185213 L45.9308236,22.3605171 L42.1291763,-0.39091565 Z" id="path2830"></path>
            </g>
        </g>
    </g>
</svg>