<?xml version="1.0" encoding="utf-8"?>
<!-- Generator: Adobe Illustrator 18.0.0, SVG Export Plug-In . SVG Version: 6.00 Build 0)  -->
<!DOCTYPE svg PUBLIC "-//W3C//DTD SVG 1.1//EN" "http://www.w3.org/Graphics/SVG/1.1/DTD/svg11.dtd">
<svg version="1.1" id="Layer_1" xmlns:sketch="http://www.bohemiancoding.com/sketch/ns"
	 xmlns="http://www.w3.org/2000/svg" xmlns:xlink="http://www.w3.org/1999/xlink" x="0px" y="0px" viewBox="0 0 46 58"
	 enable-background="new 0 0 46 58" xml:space="preserve">
<title>Slice 2</title>
<desc>Created with Sketch.</desc>
<g>
	<g id="XMLID_1_">
		<g>
			<polygon points="42.1,-0.4 37.2,0.4 41,23.2 45.9,22.4 			"/>
			<polygon points="26.2,5 39.7,23.7 35.6,26.6 22.2,7.9 			"/>
			<polygon points="38.5,34 38.5,58.2 0.3,58.2 0.3,33.8 4.7,33.9 4.6,45 4.6,53.5 33.8,53.5 33.8,34 			"/>
			<polygon points="35.7,27.5 33.1,31.8 13.4,19.9 16,15.6 			"/>
			<polygon points="32,32.5 31.7,33.4 30.6,37.3 8.4,31 9.8,26.2 			"/>
			<polygon points="31.2,39.1 30.7,44 30,44 7.8,41.8 8.2,36.8 30.5,39 			"/>
			<rect x="7" y="45" width="22.9" height="4.9"/>
		</g>
		<g>
		</g>
	</g>
</g>
</svg>
